<?xml version="1.0" encoding="UTF-8" standalone="no"?>
<!DOCTYPE svg PUBLIC "-//W3C//DTD SVG 1.1//EN"
 "http://www.w3.org/Graphics/SVG/1.1/DTD/svg11.dtd">
<!-- Generated by graphviz version 2.28.0 (20130928.0220)
 -->
<!-- Title: cont_page_hint Pages: 1 -->
<svg width="1147pt" height="544pt"
 viewBox="0.00 0.00 1147.00 544.00" xmlns="http://www.w3.org/2000/svg" xmlns:xlink="http://www.w3.org/1999/xlink">
<g id="graph1" class="graph" transform="scale(1 1) rotate(0) translate(4 540)">
<title>cont_page_hint</title>
<polygon fill="white" stroke="white" points="-4,5 -4,-540 1144,-540 1144,5 -4,5"/>
<!-- cont_page_hint -->
<g id="node1" class="node"><title>cont_page_hint</title>
<polygon fill="none" stroke="skyblue" stroke-width="2" points="720,-499 720,-535 812,-535 812,-499 720,-499"/>
<text text-anchor="middle" x="766" y="-513.9" font-family="Times,serif" font-size="12.00">cont_page_hint</text>
</g>
<!-- a_proven_benchmark -->
<g id="node2" class="node"><title>a_proven_benchmark</title>
<polygon fill="none" stroke="skyblue" stroke-width="2" points="401.5,-420 401.5,-456 510.5,-456 510.5,-420 401.5,-420"/>
<text text-anchor="middle" x="456" y="-434.9" font-family="Times,serif" font-size="12.00">proven benchmark</text>
</g>
<!-- cont_page_hint&#45;&gt;a_proven_benchmark -->
<g id="edge31" class="edge"><title>cont_page_hint&#45;&gt;a_proven_benchmark</title>
<path fill="none" stroke="black" d="M719.925,-504.555C667.15,-491.447 580.309,-469.877 520.75,-455.083"/>
<polygon fill="black" stroke="black" points="521.248,-451.6 510.699,-452.587 519.561,-458.394 521.248,-451.6"/>
</g>
<!-- b_prototype -->
<g id="node3" class="node"><title>b_prototype</title>
<polygon fill="none" stroke="skyblue" stroke-width="2" points="677.5,-414.5 677.5,-461.5 854.5,-461.5 854.5,-414.5 677.5,-414.5"/>
<text text-anchor="middle" x="766" y="-447.9" font-family="Times,serif" font-size="12.00">Ignore the following feature</text>
<text text-anchor="middle" x="766" y="-434.9" font-family="Times,serif" font-size="12.00"> before the prototype works</text>
<text text-anchor="middle" x="766" y="-421.9" font-family="Times,serif" font-size="12.00"> memcg, userfaultfd, numa, swap</text>
</g>
<!-- cont_page_hint&#45;&gt;b_prototype -->
<g id="edge33" class="edge"><title>cont_page_hint&#45;&gt;b_prototype</title>
<path fill="none" stroke="black" d="M766,-498.911C766,-490.928 766,-481.143 766,-471.814"/>
<polygon fill="black" stroke="black" points="769.5,-471.595 766,-461.595 762.5,-471.595 769.5,-471.595"/>
</g>
<!-- c_full_function -->
<g id="node4" class="node"><title>c_full_function</title>
<polygon fill="none" stroke="skyblue" stroke-width="2" points="872.5,-420 872.5,-456 949.5,-456 949.5,-420 872.5,-420"/>
<text text-anchor="middle" x="911" y="-434.9" font-family="Times,serif" font-size="12.00">full function</text>
</g>
<!-- cont_page_hint&#45;&gt;c_full_function -->
<g id="edge35" class="edge"><title>cont_page_hint&#45;&gt;c_full_function</title>
<path fill="none" stroke="black" d="M798.18,-498.911C819.299,-487.696 847.112,-472.927 869.837,-460.859"/>
<polygon fill="black" stroke="black" points="871.719,-463.822 878.91,-456.041 868.436,-457.64 871.719,-463.822"/>
</g>
<!-- specint -->
<g id="node6" class="node"><title>specint</title>
<polygon fill="skyblue" stroke="skyblue" points="354,-329 354,-365 408,-365 408,-329 354,-329"/>
<text text-anchor="middle" x="381" y="-343.9" font-family="Times,serif" font-size="12.00">specint</text>
</g>
<!-- a_proven_benchmark&#45;&gt;specint -->
<g id="edge3" class="edge"><title>a_proven_benchmark&#45;&gt;specint</title>
<path fill="none" stroke="black" d="M441.539,-419.84C430.334,-406.543 414.647,-387.927 402.049,-372.978"/>
<polygon fill="black" stroke="black" points="404.537,-370.499 395.416,-365.107 399.184,-375.01 404.537,-370.499"/>
</g>
<!-- ba_grouping_pages -->
<g id="node15" class="node"><title>ba_grouping_pages</title>
<polygon fill="none" stroke="skyblue" stroke-width="2" points="637.5,-329 637.5,-365 732.5,-365 732.5,-329 637.5,-329"/>
<text text-anchor="middle" x="685" y="-343.9" font-family="Times,serif" font-size="12.00">grouping pages</text>
</g>
<!-- b_prototype&#45;&gt;ba_grouping_pages -->
<g id="edge37" class="edge"><title>b_prototype&#45;&gt;ba_grouping_pages</title>
<path fill="none" stroke="black" d="M745.14,-414.08C733.65,-401.455 719.377,-385.773 707.62,-372.854"/>
<polygon fill="black" stroke="black" points="709.991,-370.259 700.672,-365.219 704.814,-374.971 709.991,-370.259"/>
</g>
<!-- bb_spliting_64k_pages -->
<g id="node34" class="node"><title>bb_spliting_64k_pages</title>
<polygon fill="none" stroke="skyblue" stroke-width="2" points="750.5,-317 750.5,-377 945.5,-377 945.5,-317 750.5,-317"/>
<text text-anchor="middle" x="848" y="-363.4" font-family="Times,serif" font-size="12.00">spliting 64k pages when needed: </text>
<text text-anchor="middle" x="848" y="-350.4" font-family="Times,serif" font-size="12.00"> e.g. mprotect, mremap, munmap, </text>
<text text-anchor="middle" x="848" y="-337.4" font-family="Times,serif" font-size="12.00"> LRU handling. Need add pointer to</text>
<text text-anchor="middle" x="848" y="-324.4" font-family="Times,serif" font-size="12.00"> track it</text>
</g>
<!-- b_prototype&#45;&gt;bb_spliting_64k_pages -->
<g id="edge39" class="edge"><title>b_prototype&#45;&gt;bb_spliting_64k_pages</title>
<path fill="none" stroke="black" d="M787.117,-414.08C795.361,-405.133 805.019,-394.65 814.183,-384.704"/>
<polygon fill="black" stroke="black" points="816.861,-386.962 821.063,-377.236 811.713,-382.219 816.861,-386.962"/>
</g>
<!-- bc_set_cont_page_hint -->
<g id="node36" class="node"><title>bc_set_cont_page_hint</title>
<polygon fill="none" stroke="skyblue" stroke-width="2" points="963,-317 963,-377 1139,-377 1139,-317 963,-317"/>
<text text-anchor="middle" x="1051" y="-363.4" font-family="Times,serif" font-size="12.00">setting the cont page hint. Add</text>
<text text-anchor="middle" x="1051" y="-350.4" font-family="Times,serif" font-size="12.00"> a function like do_fault_around.</text>
<text text-anchor="middle" x="1051" y="-337.4" font-family="Times,serif" font-size="12.00"> invalid tlb and deal with the</text>
<text text-anchor="middle" x="1051" y="-324.4" font-family="Times,serif" font-size="12.00"> other pages in the next time.</text>
</g>
<!-- b_prototype&#45;&gt;bc_set_cont_page_hint -->
<g id="edge41" class="edge"><title>b_prototype&#45;&gt;bc_set_cont_page_hint</title>
<path fill="none" stroke="black" d="M838.286,-414.426C873.028,-403.577 915.194,-390.41 952.792,-378.668"/>
<polygon fill="black" stroke="black" points="954.251,-381.879 962.754,-375.558 952.165,-375.198 954.251,-381.879"/>
</g>
<!-- specint_4k_page_without_transpage -->
<g id="node9" class="node"><title>specint_4k_page_without_transpage</title>
<polygon fill="none" stroke="skyblue" stroke-width="2" points="-0.5,-238 -0.5,-274 196.5,-274 196.5,-238 -0.5,-238"/>
<text text-anchor="middle" x="98" y="-252.9" font-family="Times,serif" font-size="12.00">specint_4k_page_without_transpage</text>
</g>
<!-- specint&#45;&gt;specint_4k_page_without_transpage -->
<g id="edge5" class="edge"><title>specint&#45;&gt;specint_4k_page_without_transpage</title>
<path fill="none" stroke="black" d="M353.865,-337.466C310.029,-323.68 222.455,-296.139 162.068,-277.148"/>
<polygon fill="black" stroke="black" points="162.837,-273.721 152.247,-274.06 160.737,-280.399 162.837,-273.721"/>
</g>
<!-- specint_4k_page_with_transpage -->
<g id="node11" class="node"><title>specint_4k_page_with_transpage</title>
<polygon fill="none" stroke="skyblue" stroke-width="2" points="215,-238 215,-274 397,-274 397,-238 215,-238"/>
<text text-anchor="middle" x="306" y="-252.9" font-family="Times,serif" font-size="12.00">specint_4k_page_with_transpage</text>
</g>
<!-- specint&#45;&gt;specint_4k_page_with_transpage -->
<g id="edge7" class="edge"><title>specint&#45;&gt;specint_4k_page_with_transpage</title>
<path fill="none" stroke="black" d="M366.539,-328.84C355.334,-315.543 339.647,-296.927 327.049,-281.978"/>
<polygon fill="black" stroke="black" points="329.537,-279.499 320.416,-274.107 324.184,-284.01 329.537,-279.499"/>
</g>
<!-- specint_64k_page_with_hugetlb -->
<g id="node13" class="node"><title>specint_64k_page_with_hugetlb</title>
<polygon fill="none" stroke="skyblue" stroke-width="2" points="415,-238 415,-274 591,-274 591,-238 415,-238"/>
<text text-anchor="middle" x="503" y="-252.9" font-family="Times,serif" font-size="12.00">specint_64k_page_with_hugetlb</text>
</g>
<!-- specint&#45;&gt;specint_64k_page_with_hugetlb -->
<g id="edge9" class="edge"><title>specint&#45;&gt;specint_64k_page_with_hugetlb</title>
<path fill="none" stroke="black" d="M404.523,-328.84C423.51,-314.988 450.407,-295.367 471.295,-280.129"/>
<polygon fill="black" stroke="black" points="473.533,-282.829 479.549,-274.107 469.408,-277.173 473.533,-282.829"/>
</g>
<!-- do_not_handle_in_pte_level -->
<g id="node16" class="node"><title>do_not_handle_in_pte_level</title>
<polygon fill="gray" stroke="gray" points="609.5,-232.5 609.5,-279.5 760.5,-279.5 760.5,-232.5 609.5,-232.5"/>
<text text-anchor="middle" x="685" y="-265.9" font-family="Times,serif" font-size="12.00">Handle in higher level than</text>
<text text-anchor="middle" x="685" y="-252.9" font-family="Times,serif" font-size="12.00"> pte level(Only handle pte</text>
<text text-anchor="middle" x="685" y="-239.9" font-family="Times,serif" font-size="12.00"> in our design)</text>
</g>
<!-- ba_grouping_pages&#45;&gt;do_not_handle_in_pte_level -->
<g id="edge25" class="edge"><title>ba_grouping_pages&#45;&gt;do_not_handle_in_pte_level</title>
<path fill="none" stroke="black" d="M685,-328.84C685,-317.76 685,-302.987 685,-289.72"/>
<polygon fill="black" stroke="black" points="688.5,-289.502 685,-279.502 681.5,-289.502 688.5,-289.502"/>
</g>
<!-- handle_pte_fault -->
<g id="node21" class="node"><title>handle_pte_fault</title>
<polygon fill="none" stroke="skyblue" stroke-width="2" points="779,-238 779,-274 877,-274 877,-238 779,-238"/>
<text text-anchor="middle" x="828" y="-252.9" font-family="Times,serif" font-size="12.00">handle_pte_fault</text>
</g>
<!-- ba_grouping_pages&#45;&gt;handle_pte_fault -->
<g id="edge27" class="edge"><title>ba_grouping_pages&#45;&gt;handle_pte_fault</title>
<path fill="none" stroke="black" d="M712.572,-328.84C735.124,-314.804 767.197,-294.843 791.813,-279.522"/>
<polygon fill="black" stroke="black" points="793.872,-282.363 800.513,-274.107 790.173,-276.42 793.872,-282.363"/>
</g>
<!-- pte_invalid_when_read -->
<g id="node18" class="node"><title>pte_invalid_when_read</title>
<polygon fill="none" stroke="skyblue" stroke-width="2" points="690,-1 690,-37 814,-37 814,-1 690,-1"/>
<text text-anchor="middle" x="752" y="-22.4" font-family="Times,serif" font-size="12.00">pte invalid when read</text>
<text text-anchor="middle" x="752" y="-9.4" font-family="Times,serif" font-size="12.00"> (except s390</text>
</g>
<!-- do_fault -->
<g id="node19" class="node"><title>do_fault</title>
<polygon fill="gray" stroke="gray" points="611,-74.5 611,-121.5 747,-121.5 747,-74.5 611,-74.5"/>
<text text-anchor="middle" x="679" y="-107.9" font-family="Times,serif" font-size="12.00">do_fault(Only work on</text>
<text text-anchor="middle" x="679" y="-94.9" font-family="Times,serif" font-size="12.00"> anonymous page in our</text>
<text text-anchor="middle" x="679" y="-81.9" font-family="Times,serif" font-size="12.00"> design</text>
</g>
<!-- do_anonymous_page -->
<g id="node20" class="node"><title>do_anonymous_page</title>
<polygon fill="skyblue" stroke="skyblue" points="765,-80 765,-116 887,-116 887,-80 765,-80"/>
<text text-anchor="middle" x="826" y="-94.9" font-family="Times,serif" font-size="12.00">do_anonymous_page</text>
</g>
<!-- do_anonymous_page&#45;&gt;pte_invalid_when_read -->
<g id="edge21" class="edge"><title>do_anonymous_page&#45;&gt;pte_invalid_when_read</title>
<path fill="none" stroke="black" d="M809.577,-79.9112C799.517,-69.4438 786.482,-55.8804 775.36,-44.3067"/>
<polygon fill="black" stroke="black" points="777.83,-41.8259 768.377,-37.041 772.783,-46.6764 777.83,-41.8259"/>
</g>
<!-- pte_invalid_when_write -->
<g id="node30" class="node"><title>pte_invalid_when_write</title>
<polygon fill="none" stroke="skyblue" stroke-width="2" points="832.5,-1 832.5,-37 969.5,-37 969.5,-1 832.5,-1"/>
<text text-anchor="middle" x="901" y="-15.9" font-family="Times,serif" font-size="12.00">pte_invalid_when_write</text>
</g>
<!-- do_anonymous_page&#45;&gt;pte_invalid_when_write -->
<g id="edge23" class="edge"><title>do_anonymous_page&#45;&gt;pte_invalid_when_write</title>
<path fill="none" stroke="black" d="M842.645,-79.9112C852.84,-69.4438 866.052,-55.8804 877.325,-44.3067"/>
<polygon fill="black" stroke="black" points="879.931,-46.6467 884.402,-37.041 874.917,-41.7624 879.931,-46.6467"/>
</g>
<!-- pte_inexist_in_fault_env -->
<g id="node23" class="node"><title>pte_inexist_in_fault_env</title>
<polygon fill="none" stroke="skyblue" stroke-width="2" points="682.5,-159 682.5,-195 821.5,-195 821.5,-159 682.5,-159"/>
<text text-anchor="middle" x="752" y="-173.9" font-family="Times,serif" font-size="12.00">pte_inexist_in_fault_env</text>
</g>
<!-- handle_pte_fault&#45;&gt;pte_inexist_in_fault_env -->
<g id="edge13" class="edge"><title>handle_pte_fault&#45;&gt;pte_inexist_in_fault_env</title>
<path fill="none" stroke="black" d="M811.133,-237.911C800.802,-227.444 787.414,-213.88 775.991,-202.307"/>
<polygon fill="black" stroke="black" points="778.335,-199.7 768.82,-195.041 773.353,-204.617 778.335,-199.7"/>
</g>
<!-- pte_exist_in_fault_env -->
<g id="node25" class="node"><title>pte_exist_in_fault_env</title>
<polygon fill="none" stroke="skyblue" stroke-width="2" points="839.5,-159 839.5,-195 968.5,-195 968.5,-159 839.5,-159"/>
<text text-anchor="middle" x="904" y="-173.9" font-family="Times,serif" font-size="12.00">pte_exist_in_fault_env</text>
</g>
<!-- handle_pte_fault&#45;&gt;pte_exist_in_fault_env -->
<g id="edge15" class="edge"><title>handle_pte_fault&#45;&gt;pte_exist_in_fault_env</title>
<path fill="none" stroke="black" d="M844.867,-237.911C855.198,-227.444 868.586,-213.88 880.009,-202.307"/>
<polygon fill="black" stroke="black" points="882.647,-204.617 887.18,-195.041 877.665,-199.7 882.647,-204.617"/>
</g>
<!-- pte_inexist_in_fault_env&#45;&gt;do_fault -->
<g id="edge19" class="edge"><title>pte_inexist_in_fault_env&#45;&gt;do_fault</title>
<path fill="none" stroke="black" d="M735.799,-158.911C727.498,-150.155 717.143,-139.233 707.556,-129.121"/>
<polygon fill="black" stroke="black" points="709.842,-126.444 700.421,-121.595 704.762,-131.26 709.842,-126.444"/>
</g>
<!-- pte_inexist_in_fault_env&#45;&gt;do_anonymous_page -->
<g id="edge17" class="edge"><title>pte_inexist_in_fault_env&#45;&gt;do_anonymous_page</title>
<path fill="none" stroke="black" d="M768.423,-158.911C778.483,-148.444 791.518,-134.88 802.64,-123.307"/>
<polygon fill="black" stroke="black" points="805.217,-125.676 809.623,-116.041 800.17,-120.826 805.217,-125.676"/>
</g>
</g>
</svg>
